<svg width="100" height="100" viewBox="0 0 100 100" fill="none" xmlns="http://www.w3.org/2000/svg">
<g opacity="0.7">
<path d="M95.2375 90.4762H90.4756V95.2381H95.2375V90.4762Z" fill="white"/>
<path d="M99.9998 95.2381H95.2379V100H99.9998V95.2381Z" fill="white"/>
<path d="M4.7619 95.2381H0V100H4.7619V95.2381Z" fill="white"/>
<path d="M9.52325 90.4762H4.76135V95.2381H9.52325V90.4762Z" fill="white"/>
<path d="M52.3804 95.2381H47.6185V100H52.3804V95.2381Z" fill="#343B4F"/>
<path d="M99.9998 0H95.2379V4.7619H99.9998V0Z" fill="white"/>
<path d="M95.2375 4.76197H90.4756V9.52387H95.2375V4.76197Z" fill="white"/>
<path d="M99.9998 47.6191H95.2379V52.381H99.9998V47.6191Z" fill="#343B4F"/>
<path d="M71.4283 57.1428V71.4285H57.1426V90.4761H76.1902V76.1904H90.4759V57.1428H71.4283ZM71.4283 85.7142H61.9045V76.1904H71.4283V85.7142ZM85.714 71.4285H76.1902V61.9047H85.714V71.4285Z" fill="#D94627"/>
<path d="M42.8569 9.52383H23.8093V23.8095H9.52362V42.8571H28.5712V28.5714H42.8569V9.52383ZM23.8093 38.0952H14.2855V28.5714H23.8093V38.0952ZM38.095 23.8095H28.5712V14.2857H38.095V23.8095Z" fill="#D94627"/>
<path d="M76.1902 23.8095V9.52383H57.1426V28.5714H71.4283V42.8571H90.4759V23.8095H76.1902ZM71.4283 23.8095H61.9045V14.2857H71.4283V23.8095ZM85.714 38.0952H76.1902V28.5714H85.714V38.0952Z" fill="#D94627"/>
<path d="M28.5712 71.4285V57.1428H9.52362V76.1904H23.8093V90.4761H42.8569V71.4285H28.5712ZM23.8093 71.4285H14.2855V61.9047H23.8093V71.4285ZM38.095 85.7142H28.5712V76.1904H38.095V85.7142Z" fill="#D94627"/>
<path d="M4.7619 0H0V4.7619H4.7619V0Z" fill="white"/>
<path d="M9.52325 4.76197H4.76135V9.52387H9.52325V4.76197Z" fill="white"/>
<path d="M47.619 42.8571H42.8571V47.619H47.619V42.8571Z" fill="white"/>
<path d="M52.3804 47.6191H47.6185V52.381H52.3804V47.6191Z" fill="white"/>
<path d="M57.1426 42.8571H52.3807V47.619H57.1426V42.8571Z" fill="white"/>
<path d="M47.619 52.381H42.8571V57.1429H47.619V52.381Z" fill="white"/>
<path d="M57.1426 52.381H52.3807V57.1429H57.1426V52.381Z" fill="white"/>
<path d="M52.3804 0H47.6185V4.7619H52.3804V0Z" fill="#343B4F"/>
<path d="M4.7619 47.6191H0V52.381H4.7619V47.6191Z" fill="#343B4F"/>
</g>
</svg>
